<svg id="Layer_1" data-name="Layer 1" xmlns="http://www.w3.org/2000/svg" viewBox="0 0 34.99998 34.99994"><defs><style>.cls-1{fill:#fafafd;}.cls-2{fill:#79a4c1;}</style></defs><title>Offset Social Media Icons</title><path class="cls-1" d="M0,3.43289V31.56705a3.43289,3.43289,0,0,0,3.43289,3.43289h15.2606V21.44449H14.133V16.163h4.5605v-3.8955c0-4.51851,2.7615-6.98249,6.7935-6.979a37.9426,37.9426,0,0,1,4.07749.20649V10.22H26.768c-2.19449,0-2.618,1.043-2.618,2.57252v3.374h5.23249L28.7,21.44794H24.15v13.552h7.4171A3.43289,3.43289,0,0,0,35,31.56705V3.43289A3.43289,3.43289,0,0,0,31.56709,0H3.43289A3.43289,3.43289,0,0,0,0,3.43289Z"/><path class="cls-2" d="M0,38.43283V66.567a3.43289,3.43289,0,0,0,3.43289,3.43289h15.2606V56.44443H14.133V51.16291h4.5605V47.2674c0-4.51851,2.7615-6.98249,6.7935-6.979a37.9426,37.9426,0,0,1,4.07749.20649v4.725H26.768c-2.19449,0-2.618,1.043-2.618,2.57252v3.374h5.23249L28.7,56.44788H24.15v13.552h7.4171A3.43289,3.43289,0,0,0,35,66.567V38.43283a3.43289,3.43289,0,0,0-3.43289-3.43289H3.43289A3.43289,3.43289,0,0,0,0,38.43283Z"/></svg>