<svg id="Layer_1" data-name="Layer 1" xmlns="http://www.w3.org/2000/svg" viewBox="0 0 34.99998 35.00001"><defs><style>.cls-1{fill:#fafafd;}.cls-2{fill:#79a4c1;}</style></defs><title>Offset Social Media Icons</title><path class="cls-1" d="M20.42649,14.59118c-4.25164-3.25957-9.08779,1.54294-5.85294,5.81774C18.82515,23.66824,23.66122,18.86611,20.42649,14.59118Z"/><path class="cls-1" d="M26.81,10.45452a4.44126,4.44126,0,0,0-1.65651-2.03708,7.51259,7.51259,0,0,0-2.827-.64044c-1.26-.05944-1.638-.06993-4.82649-.06993s-3.5665.01049-4.82649.06993a7.39731,7.39731,0,0,0-2.83862.64967A4.42533,4.42533,0,0,0,8.19,10.45452a6.555,6.555,0,0,0-.413,2.219c-.0595,1.26-.07,1.63794-.07,4.82649s.014,3.56646.07,4.82649a7.39764,7.39764,0,0,0,.64941,2.83824A4.42563,4.42563,0,0,0,10.45449,26.81a6.55491,6.55491,0,0,0,2.219.413c1.26.05951,1.638.07,4.82649.07s3.5665-.014,4.82649-.07a7.40368,7.40368,0,0,0,2.83785-.649A4.4263,4.4263,0,0,0,26.81,24.5455a6.55358,6.55358,0,0,0,.413-2.219c.0595-1.26.07-1.638.07-4.82649s-.014-3.56654-.07-4.82649A6.64528,6.64528,0,0,0,26.81,10.45452ZM21.67251,22.22817c-6.37442,4.45327-13.354-2.5261-8.9007-8.90062a2.2836,2.2836,0,0,1,.55561-.55563c6.37446-4.4535,13.3541,2.52624,8.90069,8.90065A2.28352,2.28352,0,0,1,21.67251,22.22817ZM23.877,12.558a1.435,1.435,0,1,1,1.435-1.435A1.435,1.435,0,0,1,23.877,12.558Z"/><path class="cls-1" d="M0,3.43289V31.56712A3.43289,3.43289,0,0,0,3.43289,35h28.1342A3.43289,3.43289,0,0,0,35,31.56712V3.43289A3.43289,3.43289,0,0,0,31.56709,0H3.43289A3.43289,3.43289,0,0,0,0,3.43289ZM29.37549,22.421a8.83287,8.83287,0,0,1-.5565,2.90148,6.12923,6.12923,0,0,1-3.48949,3.49653,8.78147,8.78147,0,0,1-2.9015.55645c-1.274.05951-1.68.07353-4.9245.07353s-3.65049-.014-4.92449-.07353a8.83409,8.83409,0,0,1-2.90149-.55645A6.12915,6.12915,0,0,1,6.181,25.3295a8.78047,8.78047,0,0,1-.5565-2.90148c-.05949-1.274-.0735-1.68-.0735-4.92452s.014-3.65048.0735-4.92445A8.83247,8.83247,0,0,1,6.181,9.67756,5.87953,5.87953,0,0,1,7.56,7.56,5.76565,5.76565,0,0,1,9.674,6.18455a8.77937,8.77937,0,0,1,2.9015-.55652c1.274-.05951,1.68-.07353,4.92449-.07353s3.6505.014,4.921.07a8.832,8.832,0,0,1,2.90149.55652A6.12876,6.12876,0,0,1,28.819,9.67051a8.78047,8.78047,0,0,1,.5565,2.90148c.05949,1.274.0735,1.68006.0735,4.92452S29.435,21.147,29.37549,22.421Z"/><path class="cls-2" d="M0,38.43287V66.5671A3.43289,3.43289,0,0,0,3.43289,70h28.1342A3.43289,3.43289,0,0,0,35,66.5671V38.43287A3.43289,3.43289,0,0,0,31.56709,35H3.43289A3.43289,3.43289,0,0,0,0,38.43287ZM29.37549,57.421a8.83287,8.83287,0,0,1-.5565,2.90148A6.12923,6.12923,0,0,1,25.32949,63.819a8.78147,8.78147,0,0,1-2.9015.55645c-1.274.05951-1.68.07353-4.9245.07353s-3.65049-.014-4.92449-.07353A8.83409,8.83409,0,0,1,9.6775,63.819,6.12915,6.12915,0,0,1,6.181,60.32948,8.78047,8.78047,0,0,1,5.6245,57.428c-.05949-1.274-.0735-1.68-.0735-4.92452s.014-3.65048.0735-4.92445a8.83247,8.83247,0,0,1,.5565-2.90148A5.87953,5.87953,0,0,1,7.56,42.56a5.76565,5.76565,0,0,1,2.114-1.37545,8.77937,8.77937,0,0,1,2.9015-.55652c1.274-.05951,1.68-.07353,4.92449-.07353s3.6505.014,4.921.07a8.832,8.832,0,0,1,2.90149.55652,6.12876,6.12876,0,0,1,3.4965,3.48949,8.78047,8.78047,0,0,1,.5565,2.90148c.05949,1.274.0735,1.68006.0735,4.92452S29.435,56.147,29.37549,57.421Z"/></svg>