<svg id="Layer_1" data-name="Layer 1" xmlns="http://www.w3.org/2000/svg" viewBox="0 0 35.00003 34.99996"><defs><style>.cls-1{fill:#fafafd;}.cls-2{fill:#79a4c1;}</style></defs><title>Offset Social Media Icons</title><path class="cls-1" d="M31.56714,0H3.43289A3.43288,3.43288,0,0,0,0,3.43289V31.56707A3.43288,3.43288,0,0,0,3.43289,35H31.56714A3.43288,3.43288,0,0,0,35,31.56707V3.43289A3.43288,3.43288,0,0,0,31.56714,0ZM23.75738,17.98562l-10.91663,5.855a.52534.52534,0,0,1-.84258-.50417v-11.71a.52534.52534,0,0,1,.84258-.50417l10.91663,5.855C24.27449,17.2546,24.27449,17.7083,23.75738,17.98562Z"/><path class="cls-2" d="M31.56714,34.98148H3.43289A3.43288,3.43288,0,0,0,0,38.41437V66.54854a3.43288,3.43288,0,0,0,3.43289,3.43289H31.56714A3.43288,3.43288,0,0,0,35,66.54854V38.41437A3.43288,3.43288,0,0,0,31.56714,34.98148ZM23.75738,52.96709l-10.91663,5.855a.52534.52534,0,0,1-.84258-.50417v-11.71a.52534.52534,0,0,1,.84258-.50417l10.91663,5.855C24.27449,52.23608,24.27449,52.68977,23.75738,52.96709Z"/></svg>