<svg id="Layer_1" data-name="Layer 1" xmlns="http://www.w3.org/2000/svg" xmlns:xlink="http://www.w3.org/1999/xlink" viewBox="0 0 156 156"><defs><style>.cls-1{fill:none;}.cls-2{clip-path:url(#clip-path);}.cls-3{fill:#ffc20e;}.cls-4{fill:#231f20;}.cls-5{fill:#fafafd;}</style><clipPath id="clip-path"><rect class="cls-1" x="8.5" y="51.808" width="139" height="104.192"/></clipPath></defs><title>Offset-Happy-Solar-Home</title><g class="cls-2"><path class="cls-3" d="M136.5,136H19.5a9,9,0,0,0,0,18h117a9,9,0,0,0,0-18"/><path class="cls-4" d="M136.5,156H19.5a11,11,0,0,1,0-22h117a11,11,0,0,1,0,22Zm-117-18a7,7,0,0,0,0,14h117a7,7,0,0,0,0-14Z"/><path class="cls-3" d="M142.73,65.0284a11.219,11.219,0,1,1-11.22-11.22,11.21911,11.21911,0,0,1,11.22,11.22"/><path class="cls-4" d="M131.50977,78.24609a13.21875,13.21875,0,1,1,13.2207-13.21777A13.233,13.233,0,0,1,131.50977,78.24609Zm0-22.4375a9.21875,9.21875,0,1,0,9.2207,9.21973A9.22886,9.22886,0,0,0,131.50977,55.80859Z"/></g><polygon class="cls-5" points="84 144.654 132 144.654 132 108.654 108 84.654 84 108.654 84 144.654"/><path class="cls-4" d="M132,146.6543H84a2.0001,2.0001,0,0,1-2-2v-36a2.00025,2.00025,0,0,1,.58594-1.41406l24-24a1.99927,1.99927,0,0,1,2.82813,0l24,24A2.00025,2.00025,0,0,1,134,108.6543v36A2.0001,2.0001,0,0,1,132,146.6543Zm-46-4h44V109.48242l-22-22-22,22Z"/><g class="cls-2"><path class="cls-4" d="M124.09668,119.12891a2.0001,2.0001,0,0,1-2-2,3.3623,3.3623,0,0,0-6.72461,0,2,2,0,0,1-4,0,7.3623,7.3623,0,0,1,14.72461,0A2.0001,2.0001,0,0,1,124.09668,119.12891Zm-18.46875,0a2.0001,2.0001,0,0,1-2-2,3.36182,3.36182,0,1,0-6.72363,0,2,2,0,1,1-4,0,7.36182,7.36182,0,1,1,14.72363,0A2.0001,2.0001,0,0,1,105.62793,119.12891Z"/></g><rect class="cls-5" x="24" y="108.654" width="60" height="36"/><path class="cls-4" d="M84,146.6543H24a2.0001,2.0001,0,0,1-2-2v-36a2.0001,2.0001,0,0,1,2-2H84a2.0001,2.0001,0,0,1,2,2v36A2.0001,2.0001,0,0,1,84,146.6543Zm-58-4H82v-32H26Z"/><polygon class="cls-3" points="24.001 108.655 84.001 108.655 107.999 84.655 48.001 84.655 24.001 108.655"/><path class="cls-4" d="M84.001,110.65527h-60a1.99982,1.99982,0,0,1-1.41406-3.41406l24-24a2.00025,2.00025,0,0,1,1.41406-.58594h59.998a1.99982,1.99982,0,0,1,1.41406,3.41406l-23.998,24A2.00025,2.00025,0,0,1,84.001,110.65527Zm-55.17187-4H83.17285l19.998-20H48.8291Z"/><path class="cls-4" d="M64.00293,110.65527a2,2,0,0,1-1.41406-3.41406l24-24A1.99979,1.99979,0,0,1,89.417,86.06934l-24,24A1.99352,1.99352,0,0,1,64.00293,110.65527Z"/><path class="cls-4" d="M44.00684,110.65527a2,2,0,0,1-1.41406-3.41406l24-24a1.99979,1.99979,0,0,1,2.82813,2.82813l-24,24A1.99352,1.99352,0,0,1,44.00684,110.65527Z"/><path class="cls-4" d="M96,98.65527H36a2,2,0,0,1,0-4H96a2,2,0,0,1,0,4Z"/><path class="cls-4" d="M66,128.6543H48a2,2,0,0,1,0-4H64v-16a2,2,0,0,1,4,0v18A2.0001,2.0001,0,0,1,66,128.6543Z"/><rect class="cls-3" x="41.588" y="120.244" width="12.822" height="12.822"/><path class="cls-4" d="M54.41016,135.06641H41.58789a2.0001,2.0001,0,0,1-2-2V120.24414a2.0001,2.0001,0,0,1,2-2H54.41016a2.0001,2.0001,0,0,1,2,2v12.82227A2.0001,2.0001,0,0,1,54.41016,135.06641Zm-10.82227-4h8.82227v-8.82227H43.58789Z"/><g class="cls-2"><path class="cls-4" d="M49.5,78.5424a2.00073,2.00073,0,0,1-2-2v-4.18a2,2,0,1,1,4,0v4.18a2.00073,2.00073,0,0,1-2,2"/><path class="cls-4" d="M60.2736,78.291a1.99935,1.99935,0,0,1-1.082-2.614l1.598-3.86a2.00008,2.00008,0,0,1,3.696,1.53l-1.6,3.862a1.99948,1.99948,0,0,1-2.612,1.082"/><path class="cls-4" d="M41.4772,82.6954a1.99776,1.99776,0,0,1-2.828,0l-2.956-2.956a1.9997,1.9997,0,1,1,2.828-2.828l2.956,2.956a2.00138,2.00138,0,0,1,0,2.828"/><path class="cls-4" d="M34.2338,89.7822a2.002,2.002,0,0,1-2.614,1.084l-3.86-1.6a2.00008,2.00008,0,1,1,1.53-3.696l3.862,1.6a1.99949,1.99949,0,0,1,1.082,2.612"/></g><rect class="cls-3" x="103.08801" y="126.816" width="12.822" height="18"/><path class="cls-4" d="M115.91016,146.6543H103.08789a2.0001,2.0001,0,0,1-2-2v-18a2.0001,2.0001,0,0,1,2-2h12.82227a2.0001,2.0001,0,0,1,2,2v18A2.0001,2.0001,0,0,1,115.91016,146.6543Zm-10.82227-4h8.82227v-14h-8.82227Z"/></svg>