<svg xmlns="http://www.w3.org/2000/svg" viewBox="0 0 600 100"><defs><style>.cls-1{fill:#1b4c6a;}.cls-2{fill:#16425e;}.cls-3{fill:#0e3851;}</style></defs><title>Offset Email Footer</title><g id="Layer_1" data-name="Layer 1"><rect class="cls-1" width="600" height="100"/><path class="cls-2" d="M600.00019,99.99991V16.53067l-5.7876,3.04443a1.62227,1.62227,0,0,0-.54639.46631l-5.7627,7.71533L584.009,30.36319l-5.19287,2.37012L574.5124,29.372a1.63539,1.63539,0,0,0-.42822-.24023l-4.51807-1.70117a1.62752,1.62752,0,0,0-1.355.0957l-3.106,1.70117a1.63817,1.63817,0,0,0-.39648.30469l-6.07275,6.375-4.85791,3.064a1.64573,1.64573,0,0,0-.332.27734l-2.1709,2.37012-3.92432,2.05029-2.19092,1.1333a1.59993,1.59993,0,0,0-.21973.13672L542.66377,46.621l-4.03271,1.61914-5.92383-1.23926-7.26514-5.67383-4.74414-4.4834a1.63161,1.63161,0,0,0-.68066-.38525l-3.79248-1.05762a1.62778,1.62778,0,0,0-1.42969.27783L509.82,39.50723l-4.94873,1.24512-3.74707-.75781a1.632,1.632,0,0,0-.93945.08887l-7.3457,3.00732-4.12891-2.4873a1.65339,1.65339,0,0,0-.35742-.16016l-4.6875-1.4541a1.62524,1.62524,0,0,0-1.54053.31836l-3.18262,2.72559a1.65257,1.65257,0,0,0-.127.12109l-2.09473,2.22705-2.90479,2.07715-8.45557,3.01074-4.39258-1.14355L457.946,46.74942a1.62641,1.62641,0,0,0-1.24756-.10791l-3.25488,1.03906a1.62463,1.62463,0,0,0-.26562.11133l-7.522,3.97363L432.0998,53.70987a1.62747,1.62747,0,0,0-.52637.17041l-10.99512,5.7832-8.79248-5.97266a1.60933,1.60933,0,0,0-.16748-.09961l-9.75146-5.03564-3.55371-2.74463a1.628,1.628,0,0,0-1.3623-.29736l-3.6709.85059a1.62257,1.62257,0,0,0-.5376.23291l-6.53223,4.37256-9.314,2.2002a1.63686,1.63686,0,0,0-.54.23779l-8.93359,6.06787-4.24609-1.4209L356.39277,55.057l-2.73486-2.26318a1.632,1.632,0,0,0-.564-.30322l-7.16748-2.18115a1.625,1.625,0,0,0-.99365.01465l-9.40674,3.1709q-.0791.0271-.15527.06152l-9.31836,4.25293a1.6128,1.6128,0,0,0-.417.2749l-7.40479,6.71143L313.363,60.664a1.62692,1.62692,0,0,0-.65869-.33789L308.236,59.20889,302.21455,55.536l-5.86035-3.73047a1.54661,1.54661,0,0,0-.167-.09277l-3.0835-1.48779-2.18213-1.5166-4.99121-4.187a1.63281,1.63281,0,0,0-.41113-.252l-7.27539-3.08105L274.237,37.16495a1.62857,1.62857,0,0,0-1.40723-.459l-5.36816.84668a1.62785,1.62785,0,0,0-.78076.35107L260.926,42.642a1.66748,1.66748,0,0,0-.13037.11914l-5.26758,5.397-5.55322.57813L242.94355,44.83a1.70189,1.70189,0,0,0-.229-.105l-6.4917-2.38428-5.44531-4.91406a1.62328,1.62328,0,0,0-.65625-.36035l-6.13037-1.6958-3.311-3.05664a1.63175,1.63175,0,0,0-.38916-.26611L216.194,30.04337a1.627,1.627,0,0,0-1.3833-.022l-7.69238,3.4624-4.7793-1.07959-7.06982-5.27295L183.89766,16.69766a1.62679,1.62679,0,0,0-1.6582-.33008l-3.86279,1.40967a1.63128,1.63128,0,0,0-.394.209l-5.05322,3.64453L164.76094,23.394a1.62643,1.62643,0,0,0-.75342.38818l-5.23,4.77148-4.97314,3.564a1.62745,1.62745,0,0,0-.32178.30469l-4.92529,6.13965-3.68018,2.73877-8.62207,1.35547a1.63,1.63,0,0,0-.62988.24023l-8.10938,5.23389-2.27148-.81641L123.114,45.51309a1.6246,1.6246,0,0,0-.37354-.2373l-8.37109-3.82861-5.26465-3.82275a1.63123,1.63123,0,0,0-.58008-.2666l-2.99365-.71143-5.09277-3.8833a1.631,1.631,0,0,0-.59814-.28662L94.07295,31.059a1.62855,1.62855,0,0,0-1.23535.19043l-4.52637,2.75732-7.52979,2.019a1.67061,1.67061,0,0,0-.27979.103L75.363,38.58194l-3.86816-2.25488-.03467-.02-4.77881-2.62988a1.62557,1.62557,0,0,0-1.478-.04687l-3.2124,1.51318-3.17139.57422a1.61722,1.61722,0,0,0-.563.21533l-5.22021,3.2124L49.112,40.32022l-5.58545-2.269-3.54834-6.41406a1.623,1.623,0,0,0-.25586-.34521l-3.80811-3.92676a1.63379,1.63379,0,0,0-.46094-.33252l-3.79346-1.83105a1.62756,1.62756,0,0,0-1.9375.39941l-5.11719,5.9043-4.603,1.59375L13.965,32.12491a1.6283,1.6283,0,0,0-.981.14844L5.40693,36.02188a1.62885,1.62885,0,0,0-.52393.41162L.00019,42.23965V99.99991Z"/><path class="cls-3" d="M600.00019,70.81l-5.7876-3.33252a1.6261,1.6261,0,0,0-.42285-.23779l-6.9375-2.6333-.02686-.00977-7.71582-2.77539-3.33643-2.5293a1.62705,1.62705,0,0,0-1.36426-.28516l-3.73975.90039a1.62215,1.62215,0,0,0-.48682.20557l-3.186,2.0083a1.60511,1.60511,0,0,0-.22559.17139L562.7834,65.912l-5.02783-.35107-5.52734-2.06445a1.73254,1.73254,0,0,0-.21924-.06445l-6.19678-1.36572-5.84668-2.0376-3.9834-2.38086-4.001-3.4624a1.67961,1.67961,0,0,0-.24316-.17383l-3.78564-2.21582a1.62441,1.62441,0,0,0-1.17822-.18359l-3.19727.7168a1.62976,1.62976,0,0,0-.8252.46875l-3.98584,4.20752-3.09717,1.73926-8.20557-1.46533-2.793-1.563-1.89062-1.17432a1.62651,1.62651,0,0,0-.73193-.24023l-2.74268-.21436-4.92432-1.73a1.629,1.629,0,0,0-1.52295.23828l-2.64893,2.0083-7.22461,2.4082a1.6302,1.6302,0,0,0-.49756.26953l-5.98633,4.75244-6.62744,4.28564-4.09082.99219-3.2207-1.6665-4.63379-3.4541a1.6348,1.6348,0,0,0-.61182-.28174l-8.019-1.8252-4.20605-2.103L441.092,52.86856a1.62895,1.62895,0,0,0-.44189-.3916l-5.11523-3.082-1.76514-2.46045a1.64385,1.64385,0,0,0-.228-.25586l-2.73047-2.481a1.62547,1.62547,0,0,0-.876-.4082l-4.377-.59375-3.74658-.86328-4.49951-3.89111a1.62452,1.62452,0,0,0-.44482-.27393l-4.70752-1.939a1.62716,1.62716,0,0,0-1.79785.38135l-2.34326,2.45752-1.64355,1.19434a1.62992,1.62992,0,0,0-.39941.417l-1.50732,2.27246-2.11621,1.82764a1.59122,1.59122,0,0,0-.165.16455l-2.04,2.34912-3.64258,1.55566a1.6064,1.6064,0,0,0-.33154.18994l-3.81641,2.835-4.67529,1.05176-7.2666-3.25732-2.28125-2.28125a1.62712,1.62712,0,0,0-1.87842-.30469l-3.32422,1.66211a1.63787,1.63787,0,0,0-.394.27637L361.43623,59.5795l-8.5293,2.93164a1.62738,1.62738,0,0,0-.62207.38867L346.34,68.84463l-7.20117-2.32275-6.07178-7.12842a1.63524,1.63524,0,0,0-.46777-.37744l-3.521-1.896L325.552,54.67862a1.62811,1.62811,0,0,0-2.07764.1875l-5.63916,5.63916-7.25635,3.76221a1.81617,1.81617,0,0,0-.17725.10693l-7.20264,4.98633c-4.16309,2.88232-10.37012,7.103-11.2998,7.57764-1.06982.38672-7.74707,3.16064-10.21387,4.187l-6.92383-2.87061a1.59843,1.59843,0,0,0-.21729-.07275l-5.10937-1.31592-7.43994-4.25537a1.62463,1.62463,0,0,0-.38477-.15918l-7.20264-1.939a1.62488,1.62488,0,0,0-.86084.00391l-11.91211,3.32422a1.62651,1.62651,0,0,0-.1582.05322l-4.91113,1.93164a1.658,1.658,0,0,0-.31885.16846l-2.5,1.69922-3.24756.689-8.8457-5.98389a1.62871,1.62871,0,0,0-.53906-.23633l-9.13281-2.14893-6.4043-4.26953a1.64261,1.64261,0,0,0-.49316-.22119l-5.32129-1.38379a1.62961,1.62961,0,0,0-1.40674.28906l-3.39355,2.63184c-.042.03271-.082.06689-.12061.103L191.759,70.07559l-4.11377.90527a1.62357,1.62357,0,0,0-.6377.2959l-4.34473,3.31689-4.89941,2.26465-5.1709-1.56934-4.23633-2.38037a1.63052,1.63052,0,0,0-.74414-.208l-4.54883-.14746L158.2126,71.4545l-4.22412-1.52344a1.62963,1.62963,0,0,0-1.1582.02051l-6.06982,2.43555-9.13672-.25391-2.90332-2.083a1.63667,1.63667,0,0,0-.3125-.17529l-2.72705-1.1582-2.16553-2.35791a1.63142,1.63142,0,0,0-.25-.22168l-3.98-2.855a1.611,1.611,0,0,0-.481-.23633l-8.31055-2.49365a1.70188,1.70188,0,0,0-.26562-.05615l-4.05127-.50635L108.341,57.43253a1.62785,1.62785,0,0,0-1.43164-.18457l-4.43262,1.52344a1.58489,1.58489,0,0,0-.22705.09814L97.36494,61.434,90.93525,58.9335l-3.62012-4.00781a1.62677,1.62677,0,0,0-1.64307-.47705l-4.98682,1.38525a1.62386,1.62386,0,0,0-.67969.38281l-4.70947,4.43262a1.57405,1.57405,0,0,0-.16357.17871l-1.41309,1.7959L68.30342,66.12l-5.73926,1.1958-6.92773-4.0459a1.58474,1.58474,0,0,0-.25879-.12207l-5.65918-2.082-2.52979-2.72559a1.62979,1.62979,0,0,0-.2749-.23682L42.842,55.32266l-5.97656-6.24854a1.634,1.634,0,0,0-.397-.30371l-3.04736-1.66211a1.62653,1.62653,0,0,0-1.35059-.09521L27.63789,48.6752a1.62333,1.62333,0,0,0-.42773.23926l-4.20947,3.27441-5.07861-2.30859-3.81445-2.543-5.6499-7.5332a1.62578,1.62578,0,0,0-.54687-.46533L2.09346,36.29141a1.62742,1.62742,0,0,0-1.59766.04932,1.60838,1.60838,0,0,0-.49561.48633V99.99991h600Z"/></g></svg>