<svg id="Layer_1" data-name="Layer 1" xmlns="http://www.w3.org/2000/svg" viewBox="0 0 156 156"><defs><style>.cls-1{fill:#fafafd;}.cls-2{fill:#231f20;}.cls-3{fill:#ffc20e;}.cls-4{fill:#79a4c1;}</style></defs><title>Offset-LED-Bulb</title><circle class="cls-1" cx="77.87569" cy="86.37082" r="30.06534"/><path class="cls-2" d="M77.87588,118.43652a32.06543,32.06543,0,1,1,32.06543-32.06592A32.1022,32.1022,0,0,1,77.87588,118.43652Zm0-60.13086a28.06543,28.06543,0,1,0,28.06543,28.06494A28.09678,28.09678,0,0,0,77.87588,58.30566Z"/><path class="cls-3" d="M49.52176,96.5226c2.50179,5.15008,10.68991,19.91356,10.68991,30.34372l35.20376.128c0-10.5582,8.31239-25.32168,10.81418-30.47176Z"/><path class="cls-2" d="M95.41495,128.99414h-.00684L60.205,128.86621a1.9999,1.9999,0,0,1-1.99316-2c0-8.68652-6.30664-21.168-9.33789-27.166-.45215-.89453-.84375-1.6709-1.15137-2.30371a2,2,0,0,1,1.79883-2.874h56.708a2,2,0,0,1,1.79883,2.874c-.32812.67627-.75586,1.51563-1.25,2.48828-3.27246,6.43066-9.36328,18.39941-9.36328,27.10937a1.99884,1.99884,0,0,1-2,2ZM62.12784,124.873l31.37207.11426c.749-9.11719,6.25293-20.11328,9.4834-26.46484H52.76065C55.99307,104.92676,61.39053,115.85352,62.12784,124.873Z"/><path class="cls-1" d="M87.331,144.53476a9.465,9.465,0,1,1-18.93,0"/><path class="cls-2" d="M77.86612,156a11.4784,11.4784,0,0,1-11.46484-11.46484,2,2,0,0,1,4,0,7.46484,7.46484,0,1,0,14.92969,0,2,2,0,0,1,4,0A11.4784,11.4784,0,0,1,77.86612,156Z"/><path class="cls-1" d="M92.0635,135.99977H63.66845a4.7761,4.7761,0,0,1-5.01088-4.5h0a4.7761,4.7761,0,0,1,5.01088-4.5H92.0635a4.7761,4.7761,0,0,1,5.01088,4.5h0A4.7761,4.7761,0,0,1,92.0635,135.99977Z"/><path class="cls-2" d="M92.06338,138H63.66885a6.51867,6.51867,0,1,1,0-13H92.06338a6.5186,6.5186,0,1,1,0,13Zm-28.39453-9a2.54347,2.54347,0,1,0,0,5H92.06338a2.54332,2.54332,0,1,0,0-5Z"/><path class="cls-1" d="M90.02946,144.99977h-24.327a4.7761,4.7761,0,0,1-5.01088-4.5h0a4.7761,4.7761,0,0,1,5.01088-4.5h24.327a4.7761,4.7761,0,0,1,5.01088,4.5h0A4.7761,4.7761,0,0,1,90.02946,144.99977Z"/><path class="cls-2" d="M90.0292,147H65.70206a6.5186,6.5186,0,1,1,0-13H90.0292a6.5186,6.5186,0,1,1,0,13Zm-24.32715-9a2.54332,2.54332,0,1,0,0,5H90.0292a2.54332,2.54332,0,1,0,0-5Z"/><path class="cls-4" d="M51.22453,100.369c3.34861,7.9691,8.98714,16.06719,8.98714,26.49736l35.20376.128c0-10.5582,5.72656-18.62292,9.104-26.62067a2.77515,2.77515,0,0,0-2.5615-3.85109H53.788A2.77508,2.77508,0,0,0,51.22453,100.369Z"/><path class="cls-2" d="M95.41495,128.99414h-.00684L60.205,128.86621a1.9999,1.9999,0,0,1-1.99316-2c0-7.3877-3.0498-13.62207-6-19.65039-1.01855-2.082-1.98145-4.04883-2.83105-6.07227v.001A4.77552,4.77552,0,0,1,53.788,94.52246h48.16992a4.77588,4.77588,0,0,1,4.4043,6.62988c-.86719,2.05078-1.85059,4.041-2.89258,6.14746-2.97656,6.01758-6.05469,12.23926-6.05469,19.69434a1.99884,1.99884,0,0,1-2,2Zm-33.20312-2.12793h0Zm-.06445-1.99316,31.333.11426c.4873-7.501,3.61621-13.82715,6.40332-19.46094,1.01465-2.05176,1.97363-3.98926,2.793-5.93066a.75117.75117,0,0,0-.06738-.72412.76253.76253,0,0,0-.65137-.34912H53.788a.76034.76034,0,0,0-.65039.34863.74742.74742,0,0,0-.06934.72266v.001c.80566,1.917,1.74316,3.834,2.73633,5.86328C58.56534,111.09863,61.663,117.43066,62.14737,124.873Z"/><path class="cls-2" d="M77.99991,49.13086a2.0001,2.0001,0,0,1-2-2V42.81055a2,2,0,0,1,4,0v4.32031A2.0001,2.0001,0,0,1,77.99991,49.13086Z"/><path class="cls-2" d="M58.1962,54.43848A2.00068,2.00068,0,0,1,56.46182,53.438l-2.16016-3.74121a2.00032,2.00032,0,0,1,3.46484-2L59.92667,51.438a2.00117,2.00117,0,0,1-1.73047,3.00049Z"/><path class="cls-2" d="M43.69327,68.9375a1.99035,1.99035,0,0,1-.998-.26855L38.953,66.50879a1.9999,1.9999,0,1,1,2-3.46387l3.74219,2.16016a2.00018,2.00018,0,0,1-1.002,3.73242Z"/><path class="cls-2" d="M38.3876,88.74316H34.06729a2,2,0,1,1,0-4H38.3876a2,2,0,0,1,0,4Z"/><path class="cls-2" d="M39.955,110.71a2.00009,2.00009,0,0,1-1.002-3.73242l3.74219-2.16016a2.00032,2.00032,0,0,1,2,3.46484L40.953,110.44238A1.99416,1.99416,0,0,1,39.955,110.71Z"/><path class="cls-2" d="M116.04483,110.71a1.99153,1.99153,0,0,1-.998-.26758l-3.74121-2.16016a2.00032,2.00032,0,0,1,2-3.46484l3.74121,2.16016a2.00009,2.00009,0,0,1-1.002,3.73242Z"/><path class="cls-2" d="M121.93253,88.74316h-4.32031a2,2,0,1,1,0-4h4.32031a2,2,0,0,1,0,4Z"/><path class="cls-2" d="M112.30753,68.9375a2.00018,2.00018,0,0,1-1.002-3.73242l3.74121-2.16016a1.9999,1.9999,0,1,1,2,3.46387l-3.74121,2.16016A1.98772,1.98772,0,0,1,112.30753,68.9375Z"/><path class="cls-2" d="M97.8046,54.43848A2.00117,2.00117,0,0,1,96.07413,51.438l2.16016-3.74121a2.00032,2.00032,0,0,1,3.46484,2L99.539,53.438A2.00068,2.00068,0,0,1,97.8046,54.43848Z"/></svg>