<svg id="Layer_1" data-name="Layer 1" xmlns="http://www.w3.org/2000/svg" xmlns:xlink="http://www.w3.org/1999/xlink" viewBox="0 0 156 156"><defs><style>.cls-1{fill:none;}.cls-2{clip-path:url(#clip-path);}.cls-3{fill:#f07134;}.cls-4{fill:#231f20;}.cls-5{fill:#fafafd;}</style><clipPath id="clip-path"><rect class="cls-1" x="31" y="26" width="94" height="130"/></clipPath></defs><title>Offset-Clipboard-Checklist</title><g class="cls-2"><path class="cls-3" d="M37.32,154h81.36a4.31983,4.31983,0,0,0,4.32-4.32V45.82a4.31983,4.31983,0,0,0-4.32-4.32H37.32A4.31983,4.31983,0,0,0,33,45.82V149.68A4.31983,4.31983,0,0,0,37.32,154"/><path class="cls-4" d="M118.67969,156H37.32031A6.32706,6.32706,0,0,1,31,149.67969V45.82031A6.32706,6.32706,0,0,1,37.32031,39.5h81.35938A6.32706,6.32706,0,0,1,125,45.82031V149.67969A6.32706,6.32706,0,0,1,118.67969,156ZM37.32031,43.5A2.3231,2.3231,0,0,0,35,45.82031V149.67969A2.3231,2.3231,0,0,0,37.32031,152h81.35938A2.3231,2.3231,0,0,0,121,149.67969V45.82031A2.3231,2.3231,0,0,0,118.67969,43.5Z"/></g><rect class="cls-5" x="42" y="50.388" width="72" height="94.612"/><path class="cls-4" d="M114,147H42a2.0001,2.0001,0,0,1-2-2V50.3877a2.0001,2.0001,0,0,1,2-2h72a2.0001,2.0001,0,0,1,2,2V145A2.0001,2.0001,0,0,1,114,147Zm-70-4h68V52.3877H44Z"/><path class="cls-4" d="M100.5,106.501H73.51172a2,2,0,0,1,0-4H100.5a2,2,0,0,1,0,4Z"/><path class="cls-4" d="M100.5,124.501H73.51172a2,2,0,0,1,0-4H100.5a2,2,0,0,1,0,4Z"/><path class="cls-4" d="M100.5,88.501H73.51172a2,2,0,0,1,0-4H100.5a2,2,0,0,1,0,4Z"/><path class="cls-4" d="M100.5,70.501H73.51172a2,2,0,0,1,0-4H100.5a2,2,0,0,1,0,4Z"/><g class="cls-2"><path class="cls-5" d="M69,37a9,9,0,0,1,18,0h9.18a4.31984,4.31984,0,0,1,4.32,4.32V55h-45V41.32A4.31984,4.31984,0,0,1,59.82,37Z"/><path class="cls-4" d="M100.5,57h-45a2.0001,2.0001,0,0,1-2-2V41.32031A6.32706,6.32706,0,0,1,59.82031,35h7.3623a11.00088,11.00088,0,0,1,21.63477,0h7.3623A6.32706,6.32706,0,0,1,102.5,41.32031V55A2.0001,2.0001,0,0,1,100.5,57Zm-43-4h41V41.32031A2.3231,2.3231,0,0,0,96.17969,39H87a2.0001,2.0001,0,0,1-2-2,7,7,0,0,0-14,0,2.0001,2.0001,0,0,1-2,2H59.82031A2.3231,2.3231,0,0,0,57.5,41.32031Z"/></g><path class="cls-4" d="M55.5,75.001a1.99352,1.99352,0,0,1-1.41406-.58594l-4.5-4.5a1.99979,1.99979,0,0,1,2.82813-2.82812L55.5,70.17285l7.58594-7.58594A1.99979,1.99979,0,0,1,65.91406,65.415l-9,9A1.99352,1.99352,0,0,1,55.5,75.001Z"/><path class="cls-4" d="M55.5,93.001a1.99352,1.99352,0,0,1-1.41406-.58594l-4.5-4.5a1.99979,1.99979,0,0,1,2.82813-2.82812L55.5,88.17285l7.58594-7.58594A1.99979,1.99979,0,0,1,65.91406,83.415l-9,9A1.99352,1.99352,0,0,1,55.5,93.001Z"/><path class="cls-4" d="M55.5,111.001a1.99352,1.99352,0,0,1-1.41406-.58594l-4.5-4.5a1.99979,1.99979,0,0,1,2.82813-2.82812L55.5,106.17285l7.58594-7.58594a1.99979,1.99979,0,1,1,2.82813,2.82813l-9,9A1.99352,1.99352,0,0,1,55.5,111.001Z"/><path class="cls-4" d="M55.5,129.001a1.99352,1.99352,0,0,1-1.41406-.58594l-4.5-4.5a1.99979,1.99979,0,0,1,2.82813-2.82812L55.5,124.17285l7.58594-7.58594a1.99979,1.99979,0,0,1,2.82813,2.82813l-9,9A1.99352,1.99352,0,0,1,55.5,129.001Z"/><g class="cls-2"><path class="cls-4" d="M78,38.9942c2.568,0,2.572-3.99,0-3.99-2.568,0-2.572,3.99,0,3.99"/></g></svg>