<svg id="Layer_1" data-name="Layer 1" xmlns="http://www.w3.org/2000/svg" viewBox="0 0 556.54 66.26"><defs><style>.cls-1{fill:#fafafd;}</style></defs><title>Offset Solar Inline Logo Small Scale</title><path class="cls-1" d="M85.54,33.35v-.09a17,17,0,0,1,34-.09v.09a17,17,0,0,1-34,.09Zm28,0v-.09c0-6.31-4.59-11.55-11-11.55S91.53,26.85,91.53,33.16v.09c0,6.31,4.59,11.55,11,11.55S113.51,39.65,113.51,33.35Z"/><path class="cls-1" d="M134.29,17h24.17v5.19H140v8.86h16.37v5.19H140V49.49h-5.71Z"/><path class="cls-1" d="M174.23,17h24.17v5.19H179.93v8.86h16.37v5.19H179.93V49.49h-5.71Z"/><path class="cls-1" d="M212,44.76l3.43-4.08c3.11,2.69,6.22,4.22,10.25,4.22,3.53,0,5.75-1.62,5.75-4.08v-.09c0-2.32-1.3-3.57-7.33-5-6.91-1.67-10.81-3.71-10.81-9.69V26c0-5.57,4.64-9.42,11.09-9.42a18,18,0,0,1,11.78,4.08L233.09,25a14.75,14.75,0,0,0-8.81-3.34c-3.34,0-5.29,1.72-5.29,3.85v.09c0,2.5,1.48,3.62,7.7,5.1,6.86,1.67,10.44,4.13,10.44,9.51v.09c0,6.08-4.78,9.69-11.6,9.69A20,20,0,0,1,212,44.76Z"/><path class="cls-1" d="M253.35,17h24.07v5.1H259.06v8.44h16.28v5.1H259.06v8.72h18.6v5.1H253.35Z"/><path class="cls-1" d="M301.92,22.31h-10.3V17H318v5.29h-10.3V49.49h-5.75Z"/><path class="cls-1" d="M354.74,44.76l3.43-4.08c3.11,2.69,6.22,4.22,10.25,4.22,3.53,0,5.75-1.62,5.75-4.08v-.09c0-2.32-1.3-3.57-7.33-5C359.94,34.09,356,32,356,26.06V26c0-5.57,4.64-9.42,11.09-9.42a18,18,0,0,1,11.78,4.08L375.85,25A14.75,14.75,0,0,0,367,21.61c-3.34,0-5.29,1.72-5.29,3.85v.09c0,2.5,1.48,3.62,7.7,5.1,6.86,1.67,10.44,4.13,10.44,9.51v.09c0,6.08-4.78,9.69-11.6,9.69A20,20,0,0,1,354.74,44.76Z"/><path class="cls-1" d="M394.25,33.35v-.09a17,17,0,0,1,34-.09v.09a17,17,0,0,1-34,.09Zm28,0v-.09c0-6.31-4.59-11.55-11-11.55s-10.95,5.15-10.95,11.46v.09c0,6.31,4.59,11.55,11,11.55S422.22,39.65,422.22,33.35Z"/><path class="cls-1" d="M444.62,17h5.71V44.29H467.4v5.2H444.62Z"/><path class="cls-1" d="M494.34,16.79h5.29l14.29,32.7h-6l-3.29-7.84H489.24l-3.34,7.84h-5.84Zm8.16,19.81-5.61-13-5.57,13Z"/><path class="cls-1" d="M529,17h14.47c4.08,0,7.28,1.21,9.37,3.25a9.82,9.82,0,0,1,2.69,7v.09c0,5.33-3.2,8.53-7.75,9.83l8.77,12.29h-6.73l-8-11.32H534.7V49.49H529ZM543,33.11c4.08,0,6.68-2.13,6.68-5.43v-.09c0-3.48-2.5-5.38-6.73-5.38h-8.3v10.9Z"/><path class="cls-1" d="M63.94,39.54a34.12,34.12,0,0,0-1.81-20.32A29.84,29.84,0,0,0,45.3,2.51C22-6.58,0,10.32,0,32.37a32.46,32.46,0,0,0,.79,7.15A2.3,2.3,0,0,0,3,41.31H61.69A2.29,2.29,0,0,0,63.94,39.54Z"/><path class="cls-1" d="M56.94,56q-1,1-2.14,2a2.49,2.49,0,0,1-1.62.6H11.53A2.49,2.49,0,0,1,9.92,58Q8.8,57,7.77,56a1,1,0,0,1,.71-1.67H56.23A1,1,0,0,1,56.94,56Z"/><path class="cls-1" d="M19.94,62.93a.49.49,0,0,0-.18,1,34.65,34.65,0,0,0,25.21,0,.49.49,0,0,0-.18-1Z"/><path class="cls-1" d="M1.44,47.1q.51,1,1.09,2A1.65,1.65,0,0,0,4,49.94H60.77a1.65,1.65,0,0,0,1.42-.82q.58-1,1.09-2a1,1,0,0,0-.88-1.43H2.32A1,1,0,0,0,1.44,47.1Z"/></svg>