<svg id="Layer_1" data-name="Layer 1" xmlns="http://www.w3.org/2000/svg" xmlns:xlink="http://www.w3.org/1999/xlink" viewBox="0 0 156 156"><defs><style>.cls-1{fill:none;}.cls-2{fill:#ffc20e;}.cls-3{clip-path:url(#clip-path);}.cls-4{fill:#231f20;}.cls-5{fill:#fafafd;}</style><clipPath id="clip-path"><rect class="cls-1" x="22.00014" y="62.00023" width="111.99972" height="93.99977"/></clipPath></defs><title>SolarAid-Health</title><path class="cls-2" d="M97.79992,64.00023H58.21742a7.20085,7.20085,0,0,0-7.20132,7.2V82.00019H60v-9H96v9h9V71.20024A7.19974,7.19974,0,0,0,97.79992,64.00023Z"/><g class="cls-3"><path class="cls-2" d="M124.8,154H31.20025a7.20056,7.20056,0,0,1-7.2-7.2V89.20017a7.20056,7.20056,0,0,1,7.2-7.2H124.8a7.20056,7.20056,0,0,1,7.2,7.2V146.8a7.20056,7.20056,0,0,1-7.2,7.2"/><path class="cls-4" d="M124.8,156H31.2a9.21015,9.21015,0,0,1-9.19985-9.19985V89.2A9.21015,9.21015,0,0,1,31.2,80.00019h93.6A9.21015,9.21015,0,0,1,133.99986,89.2v57.60012A9.21015,9.21015,0,0,1,124.8,156ZM31.2,84.00018A5.20579,5.20579,0,0,0,26.00013,89.2v57.60012A5.20579,5.20579,0,0,0,31.2,152h93.6a5.20579,5.20579,0,0,0,5.19986-5.19986V89.2A5.20579,5.20579,0,0,0,124.8,84.00018Z"/><path class="cls-4" d="M104.99993,84.00018H51.01634a1.99968,1.99968,0,0,1-2-2V71.20008a9.21084,9.21084,0,0,1,9.20115-9.19985H97.80008a9.21015,9.21015,0,0,1,9.19985,9.19985v10.8001A1.99968,1.99968,0,0,1,104.99993,84.00018Zm-51.98359-4h49.9836V71.20008a5.20579,5.20579,0,0,0-5.19986-5.19986H58.2175a5.20648,5.20648,0,0,0-5.20116,5.19986Z"/></g><path class="cls-4" d="M96,84.00018H60a1.99968,1.99968,0,0,1-2-2v-9a1.99968,1.99968,0,0,1,2-2H96a1.99968,1.99968,0,0,1,2,2v9A1.99968,1.99968,0,0,1,96,84.00018ZM62,80.00019H94v-5H62Z"/><rect class="cls-5" x="24.00014" y="90.97883" width="107.99973" height="54.0212"/><g class="cls-3"><path class="cls-4" d="M131.99987,147H24.00014a1.99968,1.99968,0,0,1-2-2V90.97868a1.99968,1.99968,0,0,1,2-2H131.99987a1.99968,1.99968,0,0,1,2,2V145A1.99968,1.99968,0,0,1,131.99987,147ZM26.00013,143H129.99987V92.97867H26.00013Z"/></g><polygon class="cls-2" points="72 111.999 72 99.999 84 99.999 84 111.999 96 111.999 96 123.999 84 123.999 84 135.999 72 135.999 72 123.999 60 123.999 60 111.999 72 111.999"/><path class="cls-4" d="M84,137.99939H72a1.99968,1.99968,0,0,1-2-2v-10H60a1.99968,1.99968,0,0,1-2-2v-12a1.99968,1.99968,0,0,1,2-2H70v-10a1.99968,1.99968,0,0,1,2-2H84a1.99968,1.99968,0,0,1,2,2v10H96a1.99968,1.99968,0,0,1,2,2v12a1.99968,1.99968,0,0,1-2,2H86v10A1.99968,1.99968,0,0,1,84,137.99939Zm-10-4h8v-10a1.99968,1.99968,0,0,1,2-2H94v-8H84a1.99968,1.99968,0,0,1-2-2v-10H74v10a1.99968,1.99968,0,0,1-2,2H62v8H72a1.99968,1.99968,0,0,1,2,2Z"/></svg>